<?xml version="1.0" encoding="UTF-8"?><svg id="Layer_1" xmlns="http://www.w3.org/2000/svg" viewBox="0 0 1000 1000"><defs><style>.cls-1{fill:#fff;}.cls-2{fill:#e8550c;}</style></defs><path class="cls-2" d="M427.89,76.84c44.87-25.9,100.14-25.9,145.01,0l259.6,149.88c44.87,25.9,72.5,73.77,72.5,125.58v299.76c0,51.81-27.64,99.68-72.5,125.58l-259.6,149.88c-44.87,25.9-100.14,25.9-145.01,0l-259.6-149.88c-44.87-25.9-72.5-73.77-72.5-125.58v-299.76c0-51.81,27.64-99.68,72.5-125.58L427.89,76.84Z"/><path class="cls-1" d="M195.11,654.86v-304.5h64.62l102.24,236.78h1.33l100.91-236.78h63.73v304.5h-50.01l3.98-231.92h-1.77l-99.14,231.92h-38.51l-99.14-227.93h-1.77l3.54,227.93h-50.01Z"/><path class="cls-1" d="M577.01,654.86v-304.5h134.55c16.52,0,30.98,1.77,43.37,5.31,12.39,3.54,22.72,8.85,30.98,15.93,8.26,6.79,14.31,15.05,18.15,24.79,4.13,9.74,6.2,20.95,6.2,33.64,0,7.38-1.03,14.31-3.1,20.8-1.77,6.49-4.72,12.54-8.85,18.15-3.84,5.61-8.85,10.47-15.05,14.61-5.9,4.13-12.84,7.38-20.8,9.74v1.77c9.15,1.77,17.41,4.72,24.79,8.85,7.67,3.84,14.01,8.85,19.03,15.05,5.31,6.2,9.29,13.13,11.95,20.8,2.95,7.67,4.43,15.93,4.43,24.78,0,12.98-2.21,25.08-6.64,36.29-4.43,10.92-11.06,20.51-19.92,28.77-8.56,7.97-19.33,14.16-32.31,18.59-12.69,4.43-27.15,6.64-43.37,6.64h-143.4ZM716.43,517.65h-89.4v96.04h89.4c9.44,0,17.56-1.18,24.34-3.54,7.08-2.36,12.98-5.75,17.7-10.18,4.72-4.72,8.11-10.03,10.18-15.93,2.36-6.2,3.54-12.98,3.54-20.36,0-6.79-1.18-12.98-3.54-18.59-2.36-5.61-5.9-10.47-10.62-14.61-4.43-4.13-10.18-7.23-17.26-9.29-7.08-2.36-15.2-3.54-24.34-3.54ZM708.02,391.52h-80.99v85.86h80.55c8.56,0,16.08-1.03,22.57-3.1,6.79-2.36,12.39-5.61,16.82-9.74,4.43-4.13,7.67-9,9.74-14.61,2.36-5.61,3.54-11.65,3.54-18.15s-1.03-11.65-3.1-16.38c-1.77-5.02-4.87-9.29-9.29-12.84-4.13-3.54-9.59-6.2-16.38-7.97-6.49-2.07-14.31-3.1-23.46-3.1Z"/></svg>